PathFileType	4	(X/Y/Z)	/Users/itak/Documents/Research/Walk-IL/dataset/trc/00060_00006.trc
DataRate	CameraRate	NumFrames	NumMarkers	Units	OrigDataRate	OrigDataStartFrame	OrigNumFrames
100.000000	100.000000	4	53	mm	100.000000	546	729
Frame#	Time	RPSI			LPSI			L3			STRN			T10			C7			CLAV			RBAK			LBAK			LSHO			LUPA			LAEL			LAOL			LWTS			LWPS			LFRA			LIFD			LHPS			LHTS			RSHO			RUPA			RAEL			RAOL			RWTS			RWPS			RFRA			RIFD			RHTS			RHPS			RBHD			LFHD			RFHD			LBHD			LHIP			RHIP			RASI			LASI			LKNE			LTHI			LANK			LTIP			LTOE			LMT1			LMT5			LHEE			RKNE			RTHI			RANK			RTIP			RTOE			RMT1			RMT5			RHEE			
		X1	Y1	Z1	X2	Y2	Z2	X3	Y3	Z3	X4	Y4	Z4	X5	Y5	Z5	X6	Y6	Z6	X7	Y7	Z7	X8	Y8	Z8	X9	Y9	Z9	X10	Y10	Z10	X11	Y11	Z11	X12	Y12	Z12	X13	Y13	Z13	X14	Y14	Z14	X15	Y15	Z15	X16	Y16	Z16	X17	Y17	Z17	X18	Y18	Z18	X19	Y19	Z19	X20	Y20	Z20	X21	Y21	Z21	X22	Y22	Z22	X23	Y23	Z23	X24	Y24	Z24	X25	Y25	Z25	X26	Y26	Z26	X27	Y27	Z27	X28	Y28	Z28	X29	Y29	Z29	X30	Y30	Z30	X31	Y31	Z31	X32	Y32	Z32	X33	Y33	Z33	X34	Y34	Z34	X35	Y35	Z35	X36	Y36	Z36	X37	Y37	Z37	X38	Y38	Z38	X39	Y39	Z39	X40	Y40	Z40	X41	Y41	Z41	X42	Y42	Z42	X43	Y43	Z43	X44	Y44	Z44	X45	Y45	Z45	X46	Y46	Z46	X47	Y47	Z47	X48	Y48	Z48	X49	Y49	Z49	X50	Y50	Z50	X51	Y51	Z51	X52	Y52	Z52	X53	Y53	Z53	

547	5.46	-785.3786010742188	1014.845458984375	124.3520431518555	-612.8472290039062	999.0192260742188	141.9875640869141	-694.427978515625	1067.676147460938	134.9279632568359	-733.6271362304688	1266.996826171875	385.8188781738281	-688.6002197265625	1202.464111328125	121.4937133789062	-696.2474365234375	1468.806762695312	179.8666687011719	-759.5167846679688	1331.795532226562	104.4265975952148	-725.2898559570312	1381.101440429688	356.0043029785156	-594.3026123046875	1431.411010742188	171.613525390625	-537.5615234375	1434.58056640625	283.2740478515625	-454.4950561523438	1313.9375	268.6310119628906	-422.8433532714844	1100.392822265625	271.1993408203125	-501.5868835449219	1086.316772460938	200.8064270019531	-486.9266662597656	859.010009765625	351.5025634765625	-425.7540893554688	848.4830932617188	294.1363525390625	-413.7684020996094	990.5208740234375	287.5372619628906	-507.5813598632812	673.3621215820312	359.4823913574219	-433.0296325683594	766.5293579101562	323.8314208984375	-484.9759521484375	775.5155639648438	370.6887512207031	-877.8925170898438	1435.291748046875	213.6144256591797	-937.9921264648438	1369.683959960938	188.6513519287109	-986.4508056640625	1118.015258789062	132.8229827880859	-897.3997802734375	1086.32275390625	165.6868133544922	-994.0786743164062	863.2623291015625	278.6749877929688	-1026.194091796875	852.2355346679688	196.9529724121094	-1004.29833984375	1036.161376953125	140.9670257568359	-982.8958740234375	670.4147338867188	270.3913879394531	-1000.966735839844	755.6141967773438	291.5779418945312	-1036.92236328125	761.6908569335938	222.9342193603516	-683.1701049804688	1656.362060546875	214.8867340087891	-740.607421875	1668.931396484375	422.9901428222656	-621.0659790039062	1670.291748046875	381.8338623046875	-809.9219360351562	1646.26806640625	267.8437194824219	-543.9383544921875	934.2824096679688	261.4141540527344	-875.4422607421875	947.2640991210938	176.2255554199219	-877.8544921875	968.1687622070312	302.1579895019531	-616.4180297851562	950.455322265625	360.5338134765625	-722.106201171875	506.30810546875	415.8923034667969	-638.1277465820312	623.9327392578125	365.5147094726562	-746.5090942382812	50.11099624633789	327.6632080078125	-727.7990112304688	255.4345092773438	376.655029296875	-829.5543823242188	44.60254287719727	516.3861694335938	-858.4688110351562	37.86727905273438	451.5048828125	-748.3562622070312	48.06331634521484	436.826416015625	-800.4908447265625	47.1496467590332	252.9031219482422	-935.41943359375	511.1388549804688	304.45361328125	-911.1322631835938	775.3489990234375	262.1736145019531	-882.6923828125	239.2172698974609	-105.3112335205078	-934.6071166992188	423.9101867675781	217.3492431640625	-891.1406860351562	81.07854461669922	32.52655792236328	-841.5352172851562	125.0774688720703	12.40292167663574	-923.980224609375	143.8938140869141	-40.76963043212891	-820.6575317382812	274.9354248046875	-110.4526901245117	
548	5.47	-787.3919677734375	1016.008056640625	134.7557983398438	-614.5809326171875	1000.264404296875	149.8040771484375	-695.8760375976562	1068.651977539062	144.1915740966797	-732.2501831054688	1268.414794921875	394.7699890136719	-689.8582763671875	1203.390380859375	130.1783599853516	-697.0048828125	1469.832885742188	188.2692565917969	-760.7980346679688	1332.707275390625	113.6535034179688	-724.3165893554688	1382.464965820312	364.6837158203125	-595.1639404296875	1432.54833984375	178.9989471435547	-537.3677978515625	1436.0654296875	290.0425415039062	-454.3379821777344	1315.394165039062	274.9277038574219	-422.7079772949219	1101.844970703125	278.2525939941406	-502.0244750976562	1087.357666015625	208.7294464111328	-487.9048461914062	862.0941772460938	362.3424682617188	-427.248779296875	850.3449096679688	304.736083984375	-414.15185546875	992.1050415039062	296.0101318359375	-508.9974365234375	676.6373291015625	373.4747009277344	-434.6017456054688	768.9853515625	335.9033508300781	-486.2114562988281	778.943603515625	382.8631896972656	-878.2490234375	1436.325439453125	223.5679016113281	-938.4436645507812	1370.748168945312	199.0241241455078	-986.7619018554688	1119.143432617188	143.1497497558594	-897.58642578125	1087.43212890625	175.7041473388672	-993.9061279296875	863.8867797851562	288.2138366699219	-1026.33154296875	853.1940307617188	206.4249877929688	-1004.53857421875	1037.312866210938	151.1352996826172	-983.1036987304688	671.0098876953125	278.9733581542969	-1000.980102539062	756.1381225585938	300.58154296875	-1037.152954101562	762.5843505859375	232.0261993408203	-683.84521484375	1657.771362304688	223.4006195068359	-739.2506103515625	1669.871215820312	432.0744018554688	-620.1115112304688	1671.425903320312	389.7433471679688	-810.06689453125	1647.4150390625	277.6179809570312	-543.6851806640625	935.13427734375	268.0292663574219	-876.6829833984375	948.78076171875	188.3415069580078	-876.7189331054688	969.8101806640625	314.3541870117188	-614.3265380859375	951.5203247070312	368.2848815917969	-721.0103149414062	505.5158996582031	418.8718872070312	-637.3971557617188	623.6466674804688	369.2400207519531	-746.3942260742188	49.99809646606445	327.70947265625	-727.345703125	255.1252136230469	377.933349609375	-829.4989624023438	44.49602508544922	516.4489135742188	-858.4835815429688	37.84193420410156	451.5298767089844	-748.2775268554688	47.85160827636719	436.9727478027344	-800.35693359375	47.34107208251953	252.9377593994141	-935.1153564453125	513.8434448242188	326.7209167480469	-909.6744995117188	775.958984375	275.6889038085938	-890.8873901367188	237.6740264892578	-81.03337097167969	-935.9761352539062	425.9078979492188	240.4873046875	-899.05517578125	83.13745880126953	60.79178619384766	-849.3472290039062	125.7415084838867	38.56768035888672	-932.4888305664062	144.9375152587891	-13.23907566070557	-828.430908203125	272.22314453125	-88.35976409912109	
549	5.48	-789.4119262695312	1017.140258789062	145.0876007080078	-616.319580078125	1001.490112304688	157.5450439453125	-697.3110961914062	1069.60693359375	153.4454498291016	-730.7556762695312	1269.758056640625	403.6273498535156	-691.0960083007812	1204.276245117188	138.8073883056641	-697.7362670898438	1470.826293945312	196.6011352539062	-762.0679931640625	1333.584350585938	122.8296661376953	-723.2369995117188	1383.77294921875	373.2958679199219	-596.0194091796875	1433.640380859375	186.2683715820312	-537.1157836914062	1437.494262695312	296.64501953125	-454.118408203125	1316.787841796875	280.9801940917969	-422.4829711914062	1103.227905273438	284.9596557617188	-502.482177734375	1088.358032226562	216.4291229248047	-488.7947387695312	865.2195434570312	372.978515625	-428.7560119628906	852.1902465820312	315.0904846191406	-414.4577026367188	993.632568359375	304.1579895019531	-510.5057067871094	680.0242309570312	387.2607727050781	-436.21533203125	771.4453125	347.6883544921875	-487.4019775390625	782.4273071289062	394.8221740722656	-878.5474853515625	1437.3349609375	233.5384368896484	-938.8604736328125	1371.81787109375	209.4349670410156	-987.1748046875	1120.331420898438	153.4003448486328	-897.8722534179688	1088.573364257812	185.5707550048828	-993.6963500976562	864.5227661132812	297.6246643066406	-1026.475341796875	854.1751098632812	215.7822875976562	-1004.883239746094	1038.513427734375	161.2089080810547	-983.0448608398438	671.6336059570312	287.3053283691406	-1000.827941894531	756.6535034179688	309.3983764648438	-1037.279296875	763.46728515625	240.9728546142578	-684.4802856445312	1659.136352539062	231.7943878173828	-737.8135375976562	1670.800048828125	441.0125122070312	-619.092041015625	1672.56640625	397.4978637695312	-810.1648559570312	1648.520263671875	287.2645568847656	-543.5269165039062	935.9166259765625	274.5650939941406	-877.8330688476562	950.2771606445312	200.40234375	-875.5985717773438	971.45166015625	326.5520629882812	-612.2681884765625	952.534912109375	375.8646240234375	-719.8237915039062	504.7247924804688	421.6248474121094	-636.59228515625	623.39794921875	372.8041076660156	-746.2545776367188	49.88161087036133	327.7561645507812	-726.8450927734375	254.8340606689453	379.0875549316406	-829.428955078125	44.39307022094727	516.5026245117188	-858.4820556640625	37.82123565673828	451.5570678710938	-748.1915893554688	47.64233779907227	437.1128540039062	-800.2210693359375	47.52457809448242	252.9807281494141	-934.0859985351562	516.6851196289062	348.7286071777344	-908.468017578125	777.24560546875	289.9566040039062	-899.05859375	235.0871887207031	-56.06038284301758	-936.770263671875	427.7970275878906	263.55615234375	-906.7369995117188	84.56951141357422	90.11625671386719	-856.9978637695312	125.6643981933594	65.59469604492188	-940.8383178710938	145.2380828857422	15.24681949615479	-836.197998046875	268.2954406738281	-65.74412536621094	
550	5.49	-791.433837890625	1018.212280273438	155.3346405029297	-618.0623779296875	1002.664306640625	165.1938934326172	-698.7305908203125	1070.537231445312	162.6545867919922	-729.142822265625	1270.99560546875	412.3976745605469	-692.3048095703125	1205.117797851562	147.3797302246094	-698.4443969726562	1471.778564453125	204.8824768066406	-763.3302001953125	1334.415649414062	131.9700927734375	-722.0618896484375	1384.9970703125	381.8585815429688	-596.8635864257812	1434.675170898438	193.4496002197266	-536.8070678710938	1438.829711914062	303.1231689453125	-453.8425903320312	1318.089965820312	286.8288879394531	-422.1642150878906	1104.508666992188	291.3554077148438	-502.9296264648438	1089.289672851562	223.9161987304688	-489.5925598144531	868.3543701171875	383.4102783203125	-430.2623291015625	853.9780883789062	325.2087707519531	-414.6855163574219	995.06689453125	312.0035705566406	-512.185302734375	683.5009765625	400.8327026367188	-437.9029541015625	773.8546142578125	359.1844787597656	-488.5625915527344	785.9317626953125	406.5589904785156	-878.792236328125	1438.296997070312	243.5525665283203	-939.2476196289062	1372.865844726562	219.9101257324219	-987.6987915039062	1121.553100585938	163.5969085693359	-898.2738647460938	1089.713134765625	195.3006896972656	-993.4581298828125	865.1409912109375	306.9079284667969	-1026.626831054688	855.1519775390625	225.0380859375	-1005.339416503906	1039.737182617188	171.2090759277344	-982.7471923828125	672.26318359375	295.4044494628906	-1000.513366699219	757.14013671875	318.0454406738281	-1037.307250976562	764.3162231445312	249.7942810058594	-685.0695190429688	1660.41796875	240.0741729736328	-736.2901611328125	1671.720458984375	449.8072814941406	-618.000732421875	1673.703369140625	405.1031494140625	-810.1998291015625	1649.554443359375	296.793701171875	-543.4606323242188	936.602294921875	281.0089721679688	-878.8821411132812	951.7200927734375	212.4143371582031	-874.4927368164062	973.05615234375	338.7291564941406	-610.2518920898438	953.4764404296875	383.25830078125	-718.6253662109375	503.9446716308594	424.1873779296875	-635.7615966796875	623.1810302734375	376.2344970703125	-746.104736328125	49.76858520507812	327.8037109375	-726.3450317382812	254.5599365234375	380.1386413574219	-829.3550415039062	44.29803848266602	516.5454711914062	-858.4765014648438	37.80025100708008	451.5839538574219	-748.1077880859375	47.44416046142578	437.2426452636719	-800.0961303710938	47.69421768188477	253.0259704589844	-932.3308715820312	519.636474609375	370.4095153808594	-907.7844848632812	779.5151977539062	305.4218139648438	-907.1473388671875	231.5027618408203	-30.40942764282227	-936.9886474609375	429.5675659179688	286.494873046875	-914.0242919921875	85.43402862548828	120.3987884521484	-864.3173217773438	124.8980407714844	93.39755249023438	-948.8787231445312	144.8081207275391	44.62038421630859	-843.9385986328125	263.2280578613281	-42.59732437133789	
